# xmcd
#
# Track frame offsets:
#	150
#	19536
#	38816
#	54630
#	67936
#	83380
#	101855
#	119934
#	140472
#	158535
#	177258
#	197022
#	214736
#	236359
#	254036
#	269756
#	282337
#	298088
#	313812
#	329481
#
# Disc length: 4557 seconds
#
# Revision: 0
# Processed by: cddbd v1.5.2PL0 Copyright (c) Steve Scherf et al.
# Submitted via: EasyCDDAExtractor 16.0.8.1
#
DISCID=3311cb14
DTITLE=Varios Artistas - Super Dia Mamá
DYEAR=2000
DGENRE=Pop
TTITLE0=Reinaldo Alvarez - Te Quiero De Veras
TTITLE1=Romeo and Mario Domm - Rival
TTITLE2=Juanes - La Señal
TTITLE3=Hanny Kauam - Sin Tu Amor No Valgo Nada
TTITLE4=Lasso - Te Veo
TTITLE5=Mana - Mi Reina Del Dolor
TTITLE6=Victor Muñoz - Mi Princesa
TTITLE7=Antonio Orozco and Alejandro Sanz - Estoy Hecho De Pedacitos De Ti
TTITLE8=Pablo Alboran - Solamente Tu
TTITLE9=Santiago Cruz and Fonseca - Mariposas En La Pansa
TTITLE10=Gaby Moreno and Ricardo Arjona - Fuiste Tu
TTITLE11=Jean Carlos Canela - Mi Corazon Insiste
TTITLE12=Jesse and Joy - Corre
TTITLE13=Malu - Blanco and Negro
TTITLE14=Fanny Lu - Ni Loca
TTITLE15=Paulina Rubio - Me Voy
TTITLE16=Fonseca - Eres Mi Sueño
TTITLE17=Yuridia - Ya Te Olvide
TTITLE18=Yahir - Si Tu Te Vas
TTITLE19=Reik - Creo En Ti
EXTD=
EXTT0=
EXTT1=
EXTT2=
EXTT3=
EXTT4=
EXTT5=
EXTT6=
EXTT7=
EXTT8=
EXTT9=
EXTT10=
EXTT11=
EXTT12=
EXTT13=
EXTT14=
EXTT15=
EXTT16=
EXTT17=
EXTT18=
EXTT19=
PLAYORDER=
